<?xml version="1.0" encoding="UTF-8"?>
<svg version="1.1" xmlns="http://www.w3.org/2000/svg" viewBox="0 0 1024 1024">
<path d="M0 0 C40.35087668 33.7790904 63.76375384 80.50370593 68.9609375 132.5546875 C70.50659238 150.0210978 69.39603874 166.84597622 66.5 184.1171875 C66.37141602 184.90013184 66.24283203 185.68307617 66.11035156 186.48974609 C62.75371124 206.01890156 54.96517202 224.79044698 45.5 242.1171875 C44.93796875 243.15617187 44.3759375 244.19515625 43.796875 245.265625 C37.57699616 256.33933453 30.23685814 266.60894663 21.5703125 275.89453125 C19.70374044 277.89845484 17.94383926 279.95471665 16.1875 282.0546875 C-4.98318669 306.18055014 -35.76219552 323.67246944 -66.5 332.1171875 C-67.79212402 332.48118652 -67.79212402 332.48118652 -69.11035156 332.85253906 C-83.10998845 336.63797704 -96.76634249 337.57322549 -111.1875 337.5546875 C-111.99392944 337.55490906 -112.80035889 337.55513062 -113.63122559 337.55535889 C-133.41833335 337.4973721 -152.26295995 334.30157419 -170.875 327.5546875 C-172.0973938 327.11539917 -172.0973938 327.11539917 -173.34448242 326.66723633 C-174.1047876 326.38130615 -174.86509277 326.09537598 -175.6484375 325.80078125 C-176.32052246 325.54868896 -176.99260742 325.29659668 -177.68505859 325.03686523 C-179.70942211 324.0110679 -180.98683835 322.79316511 -182.5 321.1171875 C-181.26636719 320.281875 -181.26636719 320.281875 -180.0078125 319.4296875 C-179.47317383 319.06383545 -178.93853516 318.6979834 -178.38769531 318.32104492 C-177.20098553 317.51056487 -176.01012301 316.70613576 -174.81542969 315.9074707 C-171.03222959 313.33552281 -167.96908243 310.57389405 -164.75 307.3046875 C-161.37175468 304.53868081 -160.08466247 304.07312943 -155.6640625 304.40625 C-151.92893188 305.20050689 -148.29498968 306.30560526 -144.65527344 307.45361328 C-112.45639431 317.36713316 -74.37426581 310.51740653 -45.02856445 295.18212891 C-43.17537107 294.17800239 -41.33665043 293.15121876 -39.5 292.1171875 C-38.55205566 291.59753418 -38.55205566 291.59753418 -37.58496094 291.06738281 C-27.91964851 285.74000688 -19.70953648 279.46198614 -11.5 272.1171875 C-10.67757813 271.42753906 -9.85515625 270.73789062 -9.0078125 270.02734375 C-3.04638099 264.98384893 1.72471438 259.27697434 6.5 253.1171875 C7.2425 252.19035156 7.985 251.26351563 8.75 250.30859375 C14.94171123 242.38621323 19.86029616 234.00631933 24.5 225.1171875 C24.81710937 224.51567871 25.13421875 223.91416992 25.4609375 223.29443359 C43.29085109 188.97756464 47.21813751 147.52733827 38.5 110.1171875 C38.27570313 109.09093262 38.27570313 109.09093262 38.046875 108.04394531 C33.16178738 85.8235815 22.7776215 63.82964074 8.5 46.1171875 C8.06993652 45.58174316 7.63987305 45.04629883 7.19677734 44.49462891 C-11.65732839 21.22046499 -35.29782813 3.67975094 -63.890625 -5.69140625 C-67.5 -6.8828125 -67.5 -6.8828125 -70.02734375 -7.9453125 C-73.23842268 -9.16278318 -76.44329123 -9.78798985 -79.8125 -10.4453125 C-81.06675781 -10.69410156 -82.32101562 -10.94289063 -83.61328125 -11.19921875 C-92.91902496 -12.83590734 -102.00684516 -13.12392133 -111.4375 -13.1328125 C-112.17643494 -13.13381958 -112.91536987 -13.13482666 -113.67669678 -13.13586426 C-124.59274019 -13.12579001 -134.87669312 -12.59117206 -145.5 -9.8828125 C-147.35238281 -9.46515625 -147.35238281 -9.46515625 -149.2421875 -9.0390625 C-187.77885286 0.25460316 -221.75572798 26.6334765 -242.5 60.1171875 C-253.14260787 78.3027721 -260.29012598 96.53067093 -264.5 117.1171875 C-264.67805176 117.89408936 -264.85610352 118.67099121 -265.03955078 119.47143555 C-266.84136486 128.00308156 -266.89951162 136.50223439 -266.875 145.1796875 C-266.87318726 146.36563004 -266.87318726 146.36563004 -266.87133789 147.57553101 C-266.7760551 170.66098301 -263.27406914 191.67716067 -254.5 213.1171875 C-254.18015137 213.89916504 -253.86030273 214.68114258 -253.53076172 215.48681641 C-246.52235924 232.19860125 -236.51141664 246.64187945 -224.5 260.1171875 C-223.84 260.89835937 -223.18 261.67953125 -222.5 262.484375 C-219.20593755 266.38136853 -215.79924802 269.73228466 -211.78515625 272.890625 C-211.36105469 273.29539062 -210.93695313 273.70015625 -210.5 274.1171875 C-210.5 274.7771875 -210.5 275.4371875 -210.5 276.1171875 C-213.36662957 277.77792696 -216.24458766 279.41798808 -219.125 281.0546875 C-219.93324219 281.52326172 -220.74148438 281.99183594 -221.57421875 282.47460938 C-229.64986373 287.03767707 -229.64986373 287.03767707 -234.5 287.1171875 C-241.16700402 284.05123338 -246.08571972 275.68502534 -250.5 270.1171875 C-251.13679688 269.36953125 -251.77359375 268.621875 -252.4296875 267.8515625 C-272.96254667 243.48476698 -284.40456789 213.61472401 -290.6875 182.7421875 C-290.93814209 181.51193848 -290.93814209 181.51193848 -291.19384766 180.25683594 C-296.65736 152.44975251 -294.4915474 122.21983437 -286.5 95.1171875 C-286.30599609 94.43833496 -286.11199219 93.75948242 -285.91210938 93.06005859 C-280.07274165 72.9513153 -270.62126122 54.15539421 -258.5 37.1171875 C-258.09458984 36.54355469 -257.68917969 35.96992188 -257.27148438 35.37890625 C-229.13034472 -3.95420876 -186.11890171 -30.68685316 -138.49829102 -38.70043945 C-88.92698803 -45.89882342 -38.57521145 -31.90035226 0 0 Z " fill="#FBFBFB" transform="translate(710.5,363.8828125)"/>
<path d="M0 0 C0 0.66 0 1.32 0 2 C-1.7239455 3.25459908 -3.50767995 4.42732093 -5.3125 5.5625 C-9.91406181 8.46395098 -13.35522034 11.35286638 -17.1875 15.25 C-20.80417868 18.29864125 -22.19251336 19.05155858 -26.9765625 18.74609375 C-29.82094627 18.13729245 -32.54294345 17.30410627 -35.30078125 16.38671875 C-46.86851702 12.68010115 -59.09435739 12.59273622 -71.125 12.625 C-72.27619827 12.62581573 -72.27619827 12.62581573 -73.45065308 12.62664795 C-85.69599307 12.6664381 -97.19339533 13.52700279 -109 17 C-110.13961182 17.32145996 -110.13961182 17.32145996 -111.30224609 17.64941406 C-133.89258871 24.14159787 -154.79792156 35.99771779 -172 52 C-172.60730957 52.56348145 -173.21461914 53.12696289 -173.84033203 53.70751953 C-194.26625526 72.88255692 -209.61113327 97.1632182 -218 124 C-218.33644531 125.06605469 -218.67289062 126.13210938 -219.01953125 127.23046875 C-228.67370323 160.3873066 -227.98479947 197.56020554 -216 230 C-215.57074219 231.20011719 -215.14148438 232.40023437 -214.69921875 233.63671875 C-209.1431091 248.36432209 -201.9007877 262.71533332 -192 275 C-190.83404297 276.46759766 -190.83404297 276.46759766 -189.64453125 277.96484375 C-185.39912043 283.26678657 -185.39912043 283.26678657 -180.734375 288.19140625 C-179 290 -179 290 -179 292 C-178.40791748 292.26272705 -177.81583496 292.5254541 -177.20581055 292.79614258 C-174.89787279 294.05573761 -173.4963461 295.35005758 -171.70703125 297.26171875 C-149.79545276 319.778879 -114.44759273 335.57785938 -83.09423828 337.14526367 C-34.62781324 337.50917272 5.16357805 322.9928049 40 289 C68.83484378 259.84064834 84.71236598 217.40873814 84.625 176.8125 C84.30412032 138.4297316 74.00753807 102.45437284 50 72 C48.84177734 70.51113281 48.84177734 70.51113281 47.66015625 68.9921875 C42.32389722 62.29677873 36.728043 55.95136737 30 50.625 C29.34 50.08875 28.68 49.5525 28 49 C28 48.34 28 47.68 28 47 C31.56888429 44.9322565 35.15702154 42.90054161 38.75 40.875 C39.76578125 40.28589844 40.7815625 39.69679688 41.828125 39.08984375 C43.29765625 38.26806641 43.29765625 38.26806641 44.796875 37.4296875 C45.69760742 36.91647949 46.59833984 36.40327148 47.52636719 35.87451172 C50 35 50 35 52.2019043 35.74365234 C84.18348683 58.08950757 102.22239986 105.75021023 109.04296875 142.34375 C112.25320737 161.57667794 112.87149665 182.58906572 109.38916016 201.82714844 C109.10086901 203.43680415 108.83280565 205.05011134 108.57568359 206.66503906 C103.74585913 236.82761884 91.87682657 265.85737026 73 290 C72.26136719 290.94875 71.52273438 291.8975 70.76171875 292.875 C47.2673813 322.25335446 17.75225779 343.58300841 -18 355.625 C-19.07894531 356.0065625 -20.15789062 356.388125 -21.26953125 356.78125 C-37.57090832 362.28462526 -54.02883294 363.58962867 -71.125 363.5 C-72.01364746 363.49856995 -72.90229492 363.49713989 -73.81787109 363.4956665 C-88.7066889 363.43664212 -102.63139674 362.18077467 -117 358 C-117.75958008 357.78601563 -118.51916016 357.57203125 -119.30175781 357.3515625 C-146.98313773 349.29698945 -171.15149922 333.5768901 -192 314 C-192.52609863 313.50790039 -193.05219727 313.01580078 -193.59423828 312.50878906 C-213.39373218 293.8356308 -227.09808465 271.80748928 -238 247 C-238.40863281 246.07960938 -238.81726563 245.15921875 -239.23828125 244.2109375 C-246.88221481 226.0897977 -251.02091954 204.68763738 -251.23828125 185.0390625 C-251.24812042 184.29958374 -251.25795959 183.56010498 -251.26809692 182.79821777 C-251.82138458 130.29965202 -236.60810909 80.68553833 -199.36328125 42.42578125 C-198.79174316 41.84521973 -198.22020508 41.2646582 -197.63134766 40.66650391 C-196.14174531 39.14479998 -194.68219076 37.60069456 -193.23046875 36.04296875 C-143.42953623 -16.14721391 -64.82951699 -26.08722002 0 0 Z " fill="#F63D33" transform="translate(497,338)"/>
<path d="M0 0 C4.13657186 3.42344974 8.01945555 6.96306523 11.72827148 10.8449707 C32.32339651 32.32557924 60.1478842 49.35530966 89 57 C89.79567383 57.22558594 90.59134766 57.45117188 91.41113281 57.68359375 C105.88563171 61.66394648 119.95331939 62.48155394 134.875 62.5 C135.73156189 62.50440094 136.58812378 62.50880188 137.47064209 62.51333618 C147.8116649 62.53550277 157.74037482 61.86443409 167.91696167 59.95397949 C171.63519961 59.26961454 174.38081968 58.90231647 178 60 C172.96590555 62.51704722 168.75189594 63.42790256 163.13671875 63.7890625 C160.94919642 63.87657712 160.94919642 63.87657712 159 65 C157.54695638 65.09959578 156.08949291 65.13830089 154.63305664 65.14526367 C153.72773697 65.15164352 152.8224173 65.15802338 151.8896637 65.16459656 C150.41480751 65.16626579 150.41480751 65.16626579 148.91015625 65.16796875 C147.89586044 65.17129715 146.88156464 65.17462555 145.83653259 65.17805481 C143.68196059 65.18312741 141.5273807 65.18546303 139.37280273 65.18530273 C136.10712281 65.18747038 132.84179113 65.20557003 129.57617188 65.22460938 C127.47916781 65.22754716 125.38216216 65.22952937 123.28515625 65.23046875 C122.32013687 65.23765427 121.35511749 65.24483978 120.3608551 65.25224304 C103.19568152 65.19568152 103.19568152 65.19568152 100 62 C97.37711147 61.46016612 94.76150025 60.963107 92.125 60.5 C84.37077068 59.12359023 84.37077068 59.12359023 81 58 C81 57.34 81 56.68 81 56 C80.19175781 55.81824219 79.38351562 55.63648438 78.55078125 55.44921875 C76.94783203 55.07216797 76.94783203 55.07216797 75.3125 54.6875 C74.25675781 54.44386719 73.20101562 54.20023438 72.11328125 53.94921875 C69.00547404 53.001669 66.72023154 51.74740297 64 50 C62.35271424 49.28940614 60.70462081 48.58036856 59.046875 47.89453125 C54.94920781 46.10375685 50.98412058 44.02813382 47 42 C47 41.34 47 40.68 47 40 C46.21625 39.814375 45.4325 39.62875 44.625 39.4375 C39.50342447 37.40653039 35.42770698 34.23536384 31 31 C29.62515501 30.06227269 28.25017702 29.12474032 26.875 28.1875 C25.92625 27.465625 24.9775 26.74375 24 26 C24 25.34 24 24.68 24 24 C23.071875 23.5359375 23.071875 23.5359375 22.125 23.0625 C20.75 22.375 19.375 21.6875 18 21 C18 20.34 18 19.68 18 19 C17.34 19 16.68 19 16 19 C16 18.34 16 17.68 16 17 C15.34 17 14.68 17 14 17 C14 16.34 14 15.68 14 15 C13.13761719 14.62294922 13.13761719 14.62294922 12.2578125 14.23828125 C9.70517112 12.83830319 7.93766878 11.23840451 5.875 9.1875 C5.19179688 8.52105469 4.50859375 7.85460937 3.8046875 7.16796875 C1.89065763 4.86864715 0.95430817 2.81865249 0 0 Z " fill="#360906" transform="translate(291,638)"/>
<path d="M0 0 C1.83076407 5.08545576 0.47170358 10.00992287 -1.4375 14.875 C-4.63507652 23.06391549 -5.32598746 31.11554026 -5.75390625 39.83984375 C-6 43 -6 43 -7 45 C-7.28135346 49.8883032 -7.2428392 54.79171551 -7.25 59.6875 C-7.25233643 60.40309082 -7.25467285 61.11868164 -7.25708008 61.85595703 C-7.27297935 74.75749076 -6.13926766 87.26626393 -4 100 C-3.34 100 -2.68 100 -2 100 C-1.87882812 100.59167969 -1.75765625 101.18335938 -1.6328125 101.79296875 C-0.53737373 106.95838386 0.90464335 111.55155573 3.0625 116.375 C4.19877965 119.55658303 4.60622212 122.65288801 5 126 C5.66 126 6.32 126 7 126 C7.33 127.98 7.66 129.96 8 132 C8.66 132 9.32 132 10 132 C10.40992188 133.01707031 10.81984375 134.03414062 11.2421875 135.08203125 C13.3745732 140.05968599 16.33999942 144.46399177 19.2578125 149.01171875 C21 152 21 152 21.5546875 154.33203125 C21.70164062 154.88246094 21.84859375 155.43289063 22 156 C22.99 156.33 23.98 156.66 25 157 C24.67 157.99 24.34 158.98 24 160 C-3.63489166 128.01105788 -12.46305439 82.91556917 -9.79785156 41.88818359 C-8.56214333 28.15317004 -6.22501914 12.45003827 0 0 Z " fill="#3F0B08" transform="translate(281,454)"/>
<path d="M0 0 C3.67453953 3.27639529 5.97055669 7.0418975 8.3125 11.3125 C8.70348877 12.02108154 9.09447754 12.72966309 9.49731445 13.4597168 C30.98676042 52.86068386 36.28951517 98.57672831 24.89257812 142.03613281 C23.55355774 146.48244231 21.86369729 150.74986106 20 155 C18.86854417 151.60563252 19.11392853 151.04807609 20.25 147.8125 C21.98766304 142.4241504 23.01866441 137.01073526 23.99707031 131.4465332 C24.51120859 128.53839433 25.06421976 125.80734072 26 123 C27.5185385 113.25490083 28.1864205 103.29335725 28.1875 93.4375 C28.1882251 92.73028809 28.1889502 92.02307617 28.18969727 91.29443359 C28.15650462 88.26084912 27.96667727 85.90003181 27 83 C26.741247 79.54277237 26.55711958 76.09143556 26.39453125 72.62890625 C26.52879645 69.01206879 26.52879645 69.01206879 25 66 C24.68076508 63.9427083 24.48838648 61.88386479 24.28125 59.8125 C24.18001957 57.9832467 24.18001957 57.9832467 23 57 C22.92820036 55.48071962 22.91607993 53.95832518 22.9375 52.4375 C22.94652344 51.61121094 22.95554687 50.78492188 22.96484375 49.93359375 C22.97644531 49.29550781 22.98804688 48.65742188 23 48 C22.34 48 21.68 48 21 48 C20.84144531 47.32195312 20.68289063 46.64390625 20.51953125 45.9453125 C19.03115771 40.00826445 17.10730731 34.84483648 14.23828125 29.4453125 C13.05094793 27.10061011 12.14236977 24.78179718 11.25 22.3125 C9.14828751 16.82177612 6.10869998 11.96515525 2.99707031 7.0012207 C0 2.1907601 0 2.1907601 0 0 Z " fill="#3B0907" transform="translate(552,417)"/>
<path d="M0 0 C1.11488586 3.34465758 0.96388823 3.75781777 -0.29296875 6.8515625 C-0.59170898 7.61138428 -0.89044922 8.37120605 -1.19824219 9.15405273 C-1.52469727 9.96946533 -1.85115234 10.78487793 -2.1875 11.625 C-5.36800586 19.9348202 -7.86799143 28.12224128 -9.578125 36.85302734 C-9.85608016 38.26757463 -10.14744768 39.67956221 -10.453125 41.08837891 C-15.48212081 64.60218584 -14.82904892 91.34564572 -10.36376953 114.88476562 C-9.72988889 118.57063263 -9.3785894 122.2802673 -9 126 C-9.66 126 -10.32 126 -11 126 C-11.20496094 124.92878906 -11.40992188 123.85757813 -11.62109375 122.75390625 C-11.89302709 121.35673149 -12.16517352 119.95959819 -12.4375 118.5625 C-12.57220703 117.85544922 -12.70691406 117.14839844 -12.84570312 116.41992188 C-13.28406898 112.91570736 -13.28406898 112.91570736 -15 110 C-15.53221453 106.061525 -15.76518174 102.08731104 -16.0625 98.125 C-16.15120361 96.95509521 -16.23990723 95.78519043 -16.33129883 94.57983398 C-16.84228414 87.40399322 -17.18678669 80.25697345 -17.1875 73.0625 C-17.1882251 72.28342285 -17.1889502 71.5043457 -17.18969727 70.70166016 C-17.15800809 67.54199992 -17.00604357 65.0181307 -16 62 C-15.82060367 59.8358538 -15.68003419 57.66838592 -15.5625 55.5 C-14.446875 38.446875 -14.446875 38.446875 -12 36 C-11.773125 34.700625 -11.54625 33.40125 -11.3125 32.0625 C-10.31355376 26.8256 -8.75047732 21.85890791 -7.0625 16.8125 C-6.80960205 16.05267822 -6.5567041 15.29285645 -6.29614258 14.51000977 C-2.07128713 2.07128713 -2.07128713 2.07128713 0 0 Z " fill="#350C0A" transform="translate(260,435)"/>
<path d="M0 0 C5.06998019 0.65419099 9.41990777 2.8546409 14 5 C14 5.66 14 6.32 14 7 C19.47774766 8.58321067 19.47774766 8.58321067 25 10 C25 10.66 25 11.32 25 12 C28.63 12.66 32.26 13.32 36 14 C36 14.66 36 15.32 36 16 C37.19625 16.12375 38.3925 16.2475 39.625 16.375 C42.23995076 16.64551215 44.35124949 17.1238287 46.84765625 18.00390625 C50.25212842 19.07966883 53.25379553 19.37134673 56.8125 19.5625 C62.89952153 19.89952153 62.89952153 19.89952153 64 21 C86.85435257 23.05641508 120.17543716 25.91752374 140.59008789 13.41357422 C143.80985817 11.52496416 146.33661802 11.78450694 150 12 C146.73504833 15.26495167 142.39652605 16.04789737 138.0625 17.4375 C137.18142578 17.73720703 136.30035156 18.03691406 135.39257812 18.34570312 C119.58046316 23.43961298 103.38260854 24.58654309 86.875 24.5 C85.98635254 24.49856995 85.09770508 24.49713989 84.18212891 24.4956665 C69.2933111 24.43664212 55.36860326 23.18077467 41 19 C40.24041992 18.78601563 39.48083984 18.57203125 38.69824219 18.3515625 C27.14526112 14.98994071 16.32772135 9.62989986 5.53125 4.390625 C4.68111328 3.97844727 3.83097656 3.56626953 2.95507812 3.14160156 C1 2 1 2 0 0 Z " fill="#CA453F" transform="translate(339,677)"/>
<path d="M0 0 C0 0.66 0 1.32 0 2 C-5.24398429 1.57709804 -10.26622931 0.94480391 -15.4152832 -0.14453125 C-25.30388153 -2.12711473 -35.14073795 -2.30581707 -45.1875 -2.3125 C-45.90566895 -2.31581329 -46.62383789 -2.31912659 -47.36376953 -2.32254028 C-61.29697637 -2.36048864 -74.73578756 -0.96810777 -88.25 2.625 C-89.22235596 2.88152344 -90.19471191 3.13804687 -91.1965332 3.40234375 C-104.4029525 7.03688125 -116.81342536 12.56825913 -128.84765625 19.06640625 C-129.91306641 19.52853516 -129.91306641 19.52853516 -131 20 C-131.66 19.67 -132.32 19.34 -133 19 C-132.195625 18.54625 -131.39125 18.0925 -130.5625 17.625 C-127.91143428 16.25274335 -127.91143428 16.25274335 -127 14 C-124.93359375 13.3671875 -124.93359375 13.3671875 -122.4375 12.875 C-121.61121094 12.70742188 -120.78492188 12.53984375 -119.93359375 12.3671875 C-119.29550781 12.24601562 -118.65742188 12.12484375 -118 12 C-118 11.34 -118 10.68 -118 10 C-116.68 10 -115.36 10 -114 10 C-114 9.34 -114 8.68 -114 8 C-79.69548118 -9.06150671 -36.43990575 -8.79583932 0 0 Z " fill="#380B09" transform="translate(472,327)"/>
<path d="M0 0 C2.08203125 0.421875 2.08203125 0.421875 4 1 C3.07960938 1.59425781 2.15921875 2.18851562 1.2109375 2.80078125 C-32.56115472 24.80981336 -54.83385156 52.34528293 -73 88 C-74 85 -74 85 -72.8203125 82.22265625 C-72.26085937 81.17980469 -71.70140625 80.13695312 -71.125 79.0625 C-69.32573604 75.68574182 -67.85971565 72.71975981 -67 69 C-66.2884375 68.319375 -66.2884375 68.319375 -65.5625 67.625 C-63.39867306 65.37461998 -62.85484398 62.95907532 -62 60 C-61.34 60 -60.68 60 -60 60 C-60 59.01 -60 58.02 -60 57 C-59.34 57 -58.68 57 -58 57 C-58 56.01 -58 55.02 -58 54 C-57.34 54 -56.68 54 -56 54 C-56 53.34 -56 52.68 -56 52 C-55.34 52 -54.68 52 -54 52 C-53.896875 51.4225 -53.79375 50.845 -53.6875 50.25 C-52.89103535 47.64338842 -51.80934723 46.0264689 -50 44 C-49.34 44 -48.68 44 -48 44 C-47.9175 43.4225 -47.835 42.845 -47.75 42.25 C-46.78202213 39.3460664 -45.31305716 37.96259396 -43 36 C-42.34 36 -41.68 36 -41 36 C-40.67 34.68 -40.34 33.36 -40 32 C-39.34 32 -38.68 32 -38 32 C-37.67 30.68 -37.34 29.36 -37 28 C-36.01 28 -35.02 28 -34 28 C-34 27.34 -34 26.68 -34 26 C-33.01 26 -32.02 26 -31 26 C-30.67 24.68 -30.34 23.36 -30 22 C-29.01 22 -28.02 22 -27 22 C-27 21.34 -27 20.68 -27 20 C-26.34 20 -25.68 20 -25 20 C-25 19.34 -25 18.68 -25 18 C-24.34 17.34 -23.68 16.68 -23 16 C-22.01 16 -21.02 16 -20 16 C-20 15.34 -20 14.68 -20 14 C-19.34 14 -18.68 14 -18 14 C-18 13.34 -18 12.68 -18 12 C-15 10 -15 10 -12 10 C-12 9.34 -12 8.68 -12 8 C-11.34 8 -10.68 8 -10 8 C-10 7.34 -10 6.68 -10 6 C-8.906875 5.566875 -7.81375 5.13375 -6.6875 4.6875 C-4.35837561 3.71001607 -3.08746555 3.09070502 -1.3125 1.25 C-0.879375 0.8375 -0.44625 0.425 0 0 Z " fill="#3A0D0B" transform="translate(335,347)"/>
<path d="M0 0 C3.73758459 3.73758459 4.86500195 8.85656154 5.19140625 14.0390625 C5.18796918 16.69935192 5.13407605 19.34330784 5 22 C5.66 22 6.32 22 7 22 C10.4306095 45.09535323 11.27403985 70.50455005 2.83984375 92.65625 C1.8350619 95.21328084 1.8350619 95.21328084 1.4375 98.9375 C0.95089065 102.34376542 -0.16088956 104.13098771 -2 107 C-2.71143088 108.98451771 -3.38991336 110.98202112 -4 113 C-4.66 113 -5.32 113 -6 113 C-3 103 -3 103 -2.31958008 100.78173828 C6.92626858 70.43531852 7.4513476 40.50638152 1.45751953 9.43505859 C0.86852936 6.3002731 0.41889307 3.16154035 0 0 Z " fill="#C23F38" transform="translate(576,464)"/>
<path d="M0 0 C0.495 0.99 0.495 0.99 1 2 C-0.02172614 4.19993287 -1.09072842 6.22574997 -2.3125 8.3125 C-2.67714355 8.93842041 -3.04178711 9.56434082 -3.41748047 10.20922852 C-18.79900858 35.99552607 -41.84963404 55.92030028 -68.0625 70.0625 C-69.1158252 70.63605225 -69.1158252 70.63605225 -70.19042969 71.22119141 C-74.13036818 73.28393191 -77.50760305 74.54445273 -82 75 C-80.08952195 73.08952195 -78.80246658 72.30111351 -76.41015625 71.16015625 C-75.70826172 70.81919922 -75.00636719 70.47824219 -74.28320312 70.12695312 C-72.80743245 69.41956964 -71.33087313 68.71382902 -69.85351562 68.00976562 C-69.15033203 67.66751953 -68.44714844 67.32527344 -67.72265625 66.97265625 C-66.75984741 66.51258179 -66.75984741 66.51258179 -65.77758789 66.04321289 C-63.84938846 64.91161061 -62.54319899 63.60671601 -61 62 C-56.55555556 59 -56.55555556 59 -53 59 C-53 58.34 -53 57.68 -53 57 C-51.3203125 55.4921875 -51.3203125 55.4921875 -49.125 53.875 C-48.40570312 53.33617187 -47.68640625 52.79734375 -46.9453125 52.2421875 C-45 51 -45 51 -43 51 C-43 50.34 -43 49.68 -43 49 C-42.01 49 -41.02 49 -40 49 C-40 48.34 -40 47.68 -40 47 C-39.01 47 -38.02 47 -37 47 C-37 46.34 -37 45.68 -37 45 C-36.34 45 -35.68 45 -35 45 C-35 44.34 -35 43.68 -35 43 C-30.69767442 38.23255814 -30.69767442 38.23255814 -27 37 C-27 36.34 -27 35.68 -27 35 C-25.35697047 33.31002677 -23.68528688 31.64783606 -22 30 C-21.09196775 28.92687098 -20.19578386 27.84358954 -19.3125 26.75 C-17 24 -17 24 -15 23 C-14.505 21.515 -14.505 21.515 -14 20 C-13.34 20 -12.68 20 -12 20 C-11.67 18.35 -11.34 16.7 -11 15 C-10.34 15 -9.68 15 -9 15 C-9 14.01 -9 13.02 -9 12 C-8.34 12 -7.68 12 -7 12 C-6.896875 11.46375 -6.79375 10.9275 -6.6875 10.375 C-5.36735825 5.81451031 -3.99189076 2.66126051 0 0 Z " fill="#370A09" transform="translate(562,590)"/>
<path d="M0 0 C0.33 0.66 0.66 1.32 1 2 C0.1796875 4.14453125 0.1796875 4.14453125 -1.125 6.8125 C-4.09505646 13.08539235 -6.57204806 19.50135418 -9 26 C-9.66 26 -10.32 26 -11 26 C-10.938125 26.886875 -10.87625 27.77375 -10.8125 28.6875 C-11 32 -11 32 -12.375 34.25 C-14.364556 37.61694092 -14.84481869 40.67318057 -15.47265625 44.5 C-16 47 -16 47 -16.96704102 49.31298828 C-20.29679391 57.97459555 -20.46609046 67.95427537 -21.125 77.125 C-21.21136719 78.22714844 -21.29773438 79.32929688 -21.38671875 80.46484375 C-22.28660528 92.24388492 -22.28660528 92.24388492 -21.5 104 C-20.52125353 111.59562405 -20.92580279 119.35768733 -21 127 C-21.33 127 -21.66 127 -22 127 C-23.85270322 116.35281945 -24.40376985 106.03104986 -24.375 95.25 C-24.37412384 94.44318787 -24.37324768 93.63637573 -24.37234497 92.80511475 C-24.25559572 60.00948139 -16.81547338 28.37611132 0 0 Z " fill="#D2463F" transform="translate(270,418)"/>
<path d="M0 0 C1.6498275 0.42218816 3.29483665 0.86324425 4.9375 1.3125 C6.31228516 1.67794922 6.31228516 1.67794922 7.71484375 2.05078125 C8.46894531 2.36402344 9.22304688 2.67726563 10 3 C10.33 3.99 10.66 4.98 11 6 C11.928125 6.144375 12.85625 6.28875 13.8125 6.4375 C17 7 17 7 20 8 C20 8.66 20 9.32 20 10 C21.32 10 22.64 10 24 10 C24 10.66 24 11.32 24 12 C24.70382812 12.09796875 25.40765625 12.1959375 26.1328125 12.296875 C31.81320216 13.15709067 37.197813 14.29520728 42.6875 16 C64.39950799 22.39430565 88.78526077 20.87968842 111 18 C107.95776102 20.02815932 106.34018092 20.47040687 102.8125 21.0625 C101.91144531 21.21847656 101.01039063 21.37445312 100.08203125 21.53515625 C65.78100162 26.70856883 30.56359391 20.63031214 1 2 C0.67 1.34 0.34 0.68 0 0 Z " fill="#3A0C09" transform="translate(349,653)"/>
<path d="M0 0 C0.99 0.495 0.99 0.495 2 1 C-1.222107 4.8665284 -4.14922412 5.88059018 -9 7 C-9 7.66 -9 8.32 -9 9 C-9.60996826 9.25692627 -10.21993652 9.51385254 -10.84838867 9.77856445 C-13.62974195 10.95267872 -16.40862602 12.13253047 -19.1875 13.3125 C-20.14720703 13.71662109 -21.10691406 14.12074219 -22.09570312 14.53710938 C-23.02705078 14.93349609 -23.95839844 15.32988281 -24.91796875 15.73828125 C-25.77156982 16.09962158 -26.6251709 16.46096191 -27.50463867 16.83325195 C-30.12393987 18.05795017 -32.5302996 19.50008935 -35 21 C-40.47125113 23.21455403 -46.21403136 24.00456454 -52 25 C-52.67732178 25.16612793 -53.35464355 25.33225586 -54.05249023 25.50341797 C-64.12946955 27.76590373 -74.42388781 27.21617095 -84.6875 27.125 C-86.66080276 27.11495115 -88.63411046 27.10582867 -90.60742188 27.09765625 C-95.40507165 27.07579134 -100.20248036 27.04136616 -105 27 C-105 26.34 -105 25.68 -105 25 C-105.9075 25.04125 -106.815 25.0825 -107.75 25.125 C-114.49715042 25.09746061 -121.53675047 24.61058623 -127.25 20.875 C-127.8275 20.25625 -128.405 19.6375 -129 19 C-124.10935012 19.95612495 -119.2309956 20.93295678 -114.37890625 22.0703125 C-99.88885004 25.32707931 -85.80343637 25.64140095 -71 25 C-69.82679199 24.94996826 -69.82679199 24.94996826 -68.62988281 24.89892578 C-46.3305032 23.66712032 -23.35567368 14.77038439 -4.69311523 2.75634766 C-3.16221892 1.78280937 -1.58451525 0.88359027 0 0 Z " fill="#CB473F" transform="translate(509,650)"/>
<path d="M0 0 C-2.26784108 2.26784108 -3.06313154 2.35224197 -6.125 2.875 C-10.27988358 3.70597672 -13.59460555 5.12123852 -17.2734375 7.1953125 C-19 8 -19 8 -22 8 C-22.33 8.99 -22.66 9.98 -23 11 C-23.7425 11.103125 -24.485 11.20625 -25.25 11.3125 C-28.19429211 12.04857303 -29.62744926 13.18104443 -32 15 C-32.99 15 -33.98 15 -35 15 C-35.495 16.485 -35.495 16.485 -36 18 C-39.68917126 20.86935543 -41.24432324 22 -46 22 C-46 22.66 -46 23.32 -46 24 C-46.680625 24.37125 -47.36125 24.7425 -48.0625 25.125 C-51.54049319 27.34499566 -53.68155966 29.96997122 -56.25390625 33.16015625 C-58 35 -58 35 -60.08984375 35.99609375 C-62.55044051 37.28929082 -62.80533134 38.5221687 -64 41 C-65.57589687 42.71317011 -67.20691136 44.37645972 -68.875 46 C-70.17050781 47.2684375 -70.17050781 47.2684375 -71.4921875 48.5625 C-72.73355469 49.7690625 -72.73355469 49.7690625 -74 51 C-74.72445313 51.763125 -75.44890625 52.52625 -76.1953125 53.3125 C-78 55 -78 55 -80 55 C-77.5350101 49.42533052 -73.13246393 45.38595316 -69 41 C-68.52095215 40.48695313 -68.0419043 39.97390625 -67.54833984 39.4453125 C-52.23649207 23.15505603 -33.89299804 10.76031316 -13.1875 2.3125 C-12.33325439 1.96098877 -11.47900879 1.60947754 -10.59887695 1.24731445 C-9.79667725 0.9349585 -8.99447754 0.62260254 -8.16796875 0.30078125 C-7.10485474 -0.11433716 -7.10485474 -0.11433716 -6.02026367 -0.5378418 C-3.67415012 -1.07454185 -2.25939795 -0.7550353 0 0 Z " fill="#400B09" transform="translate(385,357)"/>
<path d="M0 0 C0.33 0 0.66 0 1 0 C1.84805763 29.72056524 -16.132617 63.15506908 -34 86 C-34.62382568 86.80099121 -34.62382568 86.80099121 -35.26025391 87.61816406 C-42.17508335 96.45005557 -42.17508335 96.45005557 -46 99 C-43.97435578 94.79289278 -41.5887676 90.8831514 -39 87 C-38.34 87 -37.68 87 -37 87 C-36.71125 86.4225 -36.4225 85.845 -36.125 85.25 C-35.08333333 83.16666667 -34.04166667 81.08333333 -33 79 C-32.34 79 -31.68 79 -31 79 C-30.9175 78.46375 -30.835 77.9275 -30.75 77.375 C-29.72418729 74.12659309 -28.03436106 71.71248141 -26 69 C-25.34 69 -24.68 69 -24 69 C-24 68.01 -24 67.02 -24 66 C-23.34 66 -22.68 66 -22 66 C-21.649375 64.80375 -21.29875 63.6075 -20.9375 62.375 C-19.5163862 58.07105534 -17.63100665 54.15548077 -15.5625 50.125 C-9.74763254 38.77773187 -6.55153423 27.23083159 -3.875 14.8125 C-3 11 -3 11 -2 10 C-1.6068352 8.32115762 -1.25914548 6.63149955 -0.9375 4.9375 C-0.76089844 4.01839844 -0.58429687 3.09929688 -0.40234375 2.15234375 C-0.26957031 1.44207031 -0.13679687 0.73179687 0 0 Z " fill="#D04740" transform="translate(604,542)"/>
<path d="M0 0 C0.66916443 -0.00167175 1.33832886 -0.00334351 2.027771 -0.00506592 C25.8012228 -0.00860521 25.8012228 -0.00860521 36.41015625 4.375 C39.68725347 5.63412483 42.30759211 4.91272704 45.6875 4.25 C46.0175 3.26 46.3475 2.27 46.6875 1.25 C48.3375 1.25 49.9875 1.25 51.6875 1.25 C50.02083333 2.91666667 48.35416667 4.58333333 46.6875 6.25 C46.29820312 6.83523438 45.90890625 7.42046875 45.5078125 8.0234375 C43.6875 9.25 43.6875 9.25 40.16796875 8.73828125 C38.73233818 8.36371097 37.30136379 7.97094137 35.875 7.5625 C23.18023902 4.0609119 10.66996964 2.91494514 -2.44335938 2.98925781 C-4.67866329 2.9999577 -6.91315801 2.98930193 -9.1484375 2.9765625 C-19.00756238 2.96845133 -28.5637381 3.79900611 -38.3125 5.25 C-36.3125 3.25 -36.3125 3.25 -33.1875 3.125 C-32.23875 3.16625 -31.29 3.2075 -30.3125 3.25 C-30.3125 2.59 -30.3125 1.93 -30.3125 1.25 C-20.20039705 0.47595385 -10.14612588 0.02424555 0 0 Z " fill="#D8483F" transform="translate(430.3125,347.75)"/>
<path d="M0 0 C1.20362456 3.61087369 0.71115849 4.31834721 -0.6875 7.75 C-12.07688641 37.87296337 -12.41068308 70.09581856 -6.45751953 101.44726562 C-5.82912384 104.95340506 -5.39835456 108.46093427 -5 112 C-7 111 -7 111 -8.03515625 107.9296875 C-10.49464629 98.62344564 -11.840251 89.64553415 -12 80 C-12.0306958 78.35330322 -12.0306958 78.35330322 -12.06201172 76.67333984 C-12.51602387 48.05556546 -12.51602387 48.05556546 -10 34 C-9.76787445 32.60292347 -9.53611831 31.20578553 -9.3046875 29.80859375 C-7.48606852 19.19188952 -4.54662839 9.7625574 0 0 Z " fill="#CC4840" transform="translate(282,448)"/>
<path d="M0 0 C3.69195569 3.65145892 7.2848311 7.3772408 10.8125 11.1875 C11.31458984 11.72052734 11.81667969 12.25355469 12.33398438 12.80273438 C16 16.76801658 16 16.76801658 16 19 C16.59208252 19.26272705 17.18416504 19.5254541 17.79418945 19.79614258 C20.10212721 21.05573761 21.5036539 22.35005758 23.29296875 24.26171875 C38.31454834 39.69845759 58.13268189 49.40515181 78 57 C75.3684385 57.99901872 74.16113715 58.05052787 71.43457031 57.19555664 C70.49194336 56.77137451 69.54931641 56.34719238 68.578125 55.91015625 C67.55332031 55.45576172 66.52851563 55.00136719 65.47265625 54.53320312 C64.40917969 54.04787109 63.34570312 53.56253906 62.25 53.0625 C61.17105469 52.58103516 60.09210938 52.09957031 58.98046875 51.60351562 C56.31552703 50.41254609 53.65584451 49.21108789 51 48 C51 47.34 51 46.68 51 46 C48.36 45.34 45.72 44.68 43 44 C43 43.34 43 42.68 43 42 C42.34 42 41.68 42 41 42 C41 41.34 41 40.68 41 40 C40.14148438 39.86464844 40.14148438 39.86464844 39.265625 39.7265625 C36.4126014 38.81162735 34.93806464 37.41352065 32.75 35.375 C31.96367187 34.653125 31.17734375 33.93125 30.3671875 33.1875 C29.58601563 32.465625 28.80484375 31.74375 28 31 C26.62964495 29.78640143 25.25490999 28.5777231 23.875 27.375 C23.23304688 26.81167969 22.59109375 26.24835937 21.9296875 25.66796875 C20.61414557 24.53085052 19.28532065 23.4089629 17.9453125 22.30078125 C17.30335938 21.76839844 16.66140625 21.23601563 16 20.6875 C15.4225 20.21699219 14.845 19.74648438 14.25 19.26171875 C13 18 13 18 13 16 C12.34 16 11.68 16 11 16 C9.04018712 13.74592092 7.19599236 11.4867439 5.375 9.125 C4.859375 8.47402344 4.34375 7.82304688 3.8125 7.15234375 C0 2.26064401 0 2.26064401 0 0 Z " fill="#C84740" transform="translate(302,611)"/>
<path d="M0 0 C0.66 0 1.32 0 2 0 C4.44989972 10.45532377 4.30529592 20.89234994 4.26074219 31.56982422 C4.25009656 34.59753801 4.26064373 37.62464885 4.2734375 40.65234375 C4.28167495 52.51693874 3.92138916 64.27025785 2 76 C1.505 76.495 1.505 76.495 1 77 C0.65268264 78.57606197 0.34685523 80.16137078 0.0625 81.75 C-0.62742534 85.37081118 -1.43220451 88.64043824 -3 92 C-4.20398468 88.46519754 -3.79506709 85.93104266 -3.0390625 82.30859375 C-2.81476562 81.19806641 -2.59046875 80.08753906 -2.359375 78.94335938 C-1.99585938 77.20795898 -1.99585938 77.20795898 -1.625 75.4375 C1.08166062 62.40240092 2.19446929 50.06308465 2.1875 36.75 C2.18814453 35.47108887 2.18878906 34.19217773 2.18945312 32.87451172 C2.14583773 25.08817217 1.79553532 17.62198435 0.4375 9.9453125 C-0.05964533 6.59845914 -0.06774293 3.37867846 0 0 Z " fill="#360806" transform="translate(605,475)"/>
<path d="M0 0 C0.66 0.33 1.32 0.66 2 1 C1.22305786 1.74552124 1.22305786 1.74552124 0.43041992 2.50610352 C-18.63163517 20.8996857 -31.45500768 39.26060953 -43 63 C-43.33 63 -43.66 63 -44 63 C-44 61.35 -44 59.7 -44 58 C-43.34 58 -42.68 58 -42 58 C-41.87882812 57.39671875 -41.75765625 56.7934375 -41.6328125 56.171875 C-41.46523438 55.37265625 -41.29765625 54.5734375 -41.125 53.75 C-40.96257812 52.96109375 -40.80015625 52.1721875 -40.6328125 51.359375 C-40.00849925 49.03168856 -39.15161458 47.10968048 -38 45 C-37.34 45 -36.68 45 -36 45 C-36 44.01 -36 43.02 -36 42 C-35.34 42 -34.68 42 -34 42 C-33.855625 41.38125 -33.71125 40.7625 -33.5625 40.125 C-33 38 -33 38 -32 36 C-31.34 36 -30.68 36 -30 36 C-29.855625 35.38125 -29.71125 34.7625 -29.5625 34.125 C-29 32 -29 32 -28 30 C-27.34 30 -26.68 30 -26 30 C-25.71125 29.236875 -25.4225 28.47375 -25.125 27.6875 C-24 25 -24 25 -22 22 C-21.34 22 -20.68 22 -20 22 C-19.896875 21.360625 -19.79375 20.72125 -19.6875 20.0625 C-19.460625 19.381875 -19.23375 18.70125 -19 18 C-18.01 17.67 -17.02 17.34 -16 17 C-16 16.01 -16 15.02 -16 14 C-15.34 14 -14.68 14 -14 14 C-14 13.34 -14 12.68 -14 12 C-13.34 12 -12.68 12 -12 12 C-12 11.34 -12 10.68 -12 10 C-11.01 10 -10.02 10 -9 10 C-9 9.01 -9 8.02 -9 7 C-8.01 7 -7.02 7 -6 7 C-6 6.01 -6 5.02 -6 4 C-3.5625 2.375 -3.5625 2.375 -1 1 C-0.67 0.67 -0.34 0.34 0 0 Z " fill="#D1463E" transform="translate(327,385)"/>
<path d="M0 0 C0.78706329 -0.00100708 1.57412659 -0.00201416 2.38504028 -0.00305176 C18.7259833 0.01112169 33.91861969 1.19691732 49.3125 7.25 C45.81734088 8.32426969 43.87049726 7.91896224 40.38671875 6.79296875 C37.1175201 5.93718982 33.81098411 5.74835486 30.44921875 5.49609375 C28.3125 5.25 28.3125 5.25 26.3125 4.25 C8.31281237 0.68647803 -9.61652719 1.59135051 -27.56396484 4.91455078 C-28.56637207 5.09872559 -29.5687793 5.28290039 -30.6015625 5.47265625 C-31.4879541 5.64547119 -32.3743457 5.81828613 -33.28759766 5.99633789 C-35.72913217 6.25440039 -37.37024237 6.00571522 -39.6875 5.25 C-36.97973506 4.60170438 -34.27133555 3.95629398 -31.5625 3.3125 C-30.80195313 3.13009766 -30.04140625 2.94769531 -29.2578125 2.75976562 C-28.51015625 2.58251953 -27.7625 2.40527344 -26.9921875 2.22265625 C-26.31140137 2.06031494 -25.63061523 1.89797363 -24.92919922 1.73071289 C-16.64037685 -0.04675294 -8.43498893 0.00741585 0 0 Z " fill="#3E0C0A" transform="translate(424.6875,349.75)"/>
<path d="M0 0 C9.84504167 9.84504167 8.29046342 38.21294503 8.3125 50.875 C8.26139532 61.04416763 7.76796356 70.97627806 6 81 C5.67 81 5.34 81 5 81 C5.00444122 80.44671021 5.00888245 79.89342041 5.01345825 79.32336426 C5.0582525 73.48171616 5.08809484 67.64011806 5.10986328 61.79833984 C5.11982306 59.62807224 5.13339575 57.4578177 5.15087891 55.28759766 C5.2812705 38.66650503 4.39717688 23.11669365 0.5859375 6.890625 C0 4 0 4 0 0 Z " fill="#C3423B" transform="translate(600,461)"/>
<path d="M0 0 C3.73758459 3.73758459 4.86500195 8.85656154 5.19140625 14.0390625 C5.18796918 16.69935192 5.13407605 19.34330784 5 22 C5.66 22 6.32 22 7 22 C8.42614164 31.60098927 9.19397465 41.03640193 9.1875 50.75 C9.18814453 51.6898877 9.18878906 52.62977539 9.18945312 53.59814453 C9.15528862 57.88967165 8.93290758 61.79563449 8 66 C7.67 66 7.34 66 7 66 C6.99589111 65.2786084 6.99178223 64.5572168 6.98754883 63.81396484 C6.80612595 45.36688639 4.9398793 28.03319445 1.53515625 9.92285156 C0.93091116 6.62265893 0.43176857 3.32658059 0 0 Z " fill="#E6463D" transform="translate(576,464)"/>
<path d="M0 0 C0.763125 0.061875 1.52625 0.12375 2.3125 0.1875 C-0.90637158 2.71439194 -4.28334027 4.80692974 -7.8125 6.875 C-8.86695313 7.49761719 -9.92140625 8.12023437 -11.0078125 8.76171875 C-13.6875 10.1875 -13.6875 10.1875 -15.6875 10.1875 C-13.12297077 12.76604305 -10.54709153 15.32254634 -7.92578125 17.84375 C-0.74861796 24.78703424 5.43237622 32.12184349 11.3125 40.1875 C10.9825 40.8475 10.6525 41.5075 10.3125 42.1875 C9.50425781 41.23488281 8.69601562 40.28226562 7.86328125 39.30078125 C6.78396595 38.03375894 5.70453259 36.76683719 4.625 35.5 C4.09455078 34.87416016 3.56410156 34.24832031 3.01757812 33.60351562 C-0.08048469 29.97327024 -3.25928305 26.51488704 -6.6875 23.1875 C-9.56192661 20.38677663 -12.36208114 17.53108978 -15.0625 14.5625 C-15.84753906 13.70785156 -15.84753906 13.70785156 -16.6484375 12.8359375 C-17.16277344 12.01996094 -17.16277344 12.01996094 -17.6875 11.1875 C-16.6875 8.1875 -16.6875 8.1875 -13.6875 6.1875 C-12.3675 6.1875 -11.0475 6.1875 -9.6875 6.1875 C-9.6875 5.5275 -9.6875 4.8675 -9.6875 4.1875 C-8.7903125 4.0328125 -8.7903125 4.0328125 -7.875 3.875 C-5.60866717 3.36265064 -5.60866717 3.36265064 -4.25 1.625 C-2.6875 0.1875 -2.6875 0.1875 0 0 Z " fill="#3C0C09" transform="translate(540.6875,374.8125)"/>
<path d="M0 0 C1.49061483 2.7909384 2.48407694 5.45058995 3.3125 8.5 C6.22739876 18.3735051 10.68412161 27.58464586 15.0625 36.875 C15.6978064 38.23105347 15.6978064 38.23105347 16.34594727 39.61450195 C18.14795092 43.39740917 19.92936104 47.05148764 22.30859375 50.5078125 C24 53 24 53 24 55 C23.34 55 22.68 55 22 55 C20.77970427 53.12986004 19.64795936 51.20149253 18.5625 49.25 C16.13342999 44.87933323 16.13342999 44.87933323 13.2890625 40.78125 C11.59629544 38.4421537 11.76514185 36.81829775 12 34 C11.34 34 10.68 34 10 34 C10 32.68 10 31.36 10 30 C9.34 30 8.68 30 8 30 C7.731875 28.948125 7.46375 27.89625 7.1875 26.8125 C6.21280465 23.12221796 6.21280465 23.12221796 4.53125 20.6328125 C2.87265037 17.7810366 2.09067277 15.26165471 1.3125 12.0625 C1.06113281 11.06347656 0.80976563 10.06445312 0.55078125 9.03515625 C-0.008225 5.954675 -0.09775282 3.12343535 0 0 Z " fill="#3D0C09" transform="translate(251,561)"/>
<path d="M0 0 C0.66 0 1.32 0 2 0 C4.49291518 5.21153535 6.97852357 10.42632627 9.44921875 15.6484375 C10.83396903 18.57118309 12.23901887 21.46928648 13.70703125 24.3515625 C17.20654235 31.3505847 18.24139898 38.24415371 19 46 C19.66 46 20.32 46 21 46 C21.8723412 48.99480917 22.10829766 51.63575911 22.0625 54.75 C22.05347656 55.54921875 22.04445313 56.3484375 22.03515625 57.171875 C22.02355469 57.77515625 22.01195312 58.3784375 22 59 C20.48869839 56.1903856 19.5276862 53.56084596 18.7734375 50.46484375 C14.64270659 34.11801341 8.89583966 19.06578106 1.03125 4.15234375 C0 2 0 2 0 0 Z " fill="#3B0B08" transform="translate(583,416)"/>
<path d="M0 0 C-1.19753906 0.47308594 -2.39507812 0.94617188 -3.62890625 1.43359375 C-18.31582057 7.35111482 -31.16823851 14.46025325 -43.609375 24.25 C-46 26 -46 26 -49 27 C-49 25.68 -49 24.36 -49 23 C-48.195625 22.71125 -47.39125 22.4225 -46.5625 22.125 C-43.8673532 21.26737432 -43.8673532 21.26737432 -43 19 C-40.6859378 18.26924352 -38.35171131 17.59861742 -36 17 C-36 16.34 -36 15.68 -36 15 C-35.34 15 -34.68 15 -34 15 C-34 14.34 -34 13.68 -34 13 C-19.58769932 4.18451025 -19.58769932 4.18451025 -11 3 C-11 2.34 -11 1.68 -11 1 C-3.375 -1.125 -3.375 -1.125 0 0 Z " fill="#D2463F" transform="translate(378,358)"/>
<path d="M0 0 C0.66 0.33 1.32 0.66 2 1 C1.27683594 1.68835938 1.27683594 1.68835938 0.5390625 2.390625 C-0.09257812 3.00421875 -0.72421875 3.6178125 -1.375 4.25 C-2.00148438 4.85328125 -2.62796875 5.4565625 -3.2734375 6.078125 C-5.04951202 7.87038821 -5.04951202 7.87038821 -5.89453125 9.89453125 C-7.48620173 12.92601672 -9.87546613 15.08461338 -12.3125 17.4375 C-12.78623047 17.90220703 -13.25996094 18.36691406 -13.74804688 18.84570312 C-15.16266386 20.23322758 -16.58131512 21.61663507 -18 23 C-18.90105469 23.93972656 -19.80210937 24.87945312 -20.73046875 25.84765625 C-23 28 -23 28 -25 28 C-25.20625 28.886875 -25.4125 29.77375 -25.625 30.6875 C-27.38304358 34.92278682 -29.35373333 36.30493333 -33 39 C-27.69658584 24.03962274 -11.17256427 10.99707897 0 0 Z " fill="#D14A43" transform="translate(312,366)"/>
<path d="M0 0 C0.33 0 0.66 0 1 0 C1.01458252 0.79881592 1.02916504 1.59763184 1.04418945 2.4206543 C1.36143832 18.04880425 2.03525863 33.32772694 4.65234375 48.77197266 C5.23423546 52.50114666 5.61155114 56.24623937 6 60 C5.34 60 4.68 60 4 60 C3.79503906 58.92878906 3.59007812 57.85757813 3.37890625 56.75390625 C3.10697291 55.35673149 2.83482648 53.95959819 2.5625 52.5625 C2.42779297 51.85544922 2.29308594 51.14839844 2.15429688 50.41992188 C1.71593102 46.91570736 1.71593102 46.91570736 0 44 C-0.39823609 40.78817762 -0.47898926 37.54438633 -0.625 34.3125 C-0.67003662 33.34038574 -0.71507324 32.36827148 -0.76147461 31.36669922 C-1.1661891 20.88114405 -0.67448363 10.46443759 0 0 Z " fill="#4D120F" transform="translate(245,501)"/>
<path d="M0 0 C0.66 0.33 1.32 0.66 2 1 C-5.95648745 7.25152585 -13.89922418 11.66524408 -23 16 C-24.37664362 16.7469788 -25.75196834 17.49640258 -27.125 18.25 C-33.1134376 21.2442188 -40.43075193 23.8895795 -47 22 C-46.4330542 21.81002441 -45.8661084 21.62004883 -45.28198242 21.42431641 C-29.26856266 15.99467312 -13.97534522 9.64121917 0 0 Z " fill="#390906" transform="translate(522,672)"/>
<path d="M0 0 C0.66 0.33 1.32 0.66 2 1 C0.66666667 1.66666667 -0.66666667 2.33333333 -2 3 C-3.34964844 3.67675781 -3.34964844 3.67675781 -4.7265625 4.3671875 C-7.17593074 5.58894875 -9.62896466 6.80153794 -12.0859375 8.0078125 C-12.79363281 8.35714844 -13.50132812 8.70648438 -14.23046875 9.06640625 C-15.64033423 9.76235078 -17.05175489 10.45515519 -18.46484375 11.14453125 C-21.91734785 12.85389238 -24.94849987 14.62501169 -28 17 C-28.70125 17.165 -29.4025 17.33 -30.125 17.5 C-32.40123363 17.88573402 -32.40123363 17.88573402 -34 21 C-35.61445062 21.63905337 -37.22945329 22.27675878 -38.84765625 22.90625 C-43.36993559 25.20432299 -47.14680895 28.73602931 -51 32 C-51.66 31.67 -52.32 31.34 -53 31 C-38.01264232 17.63022057 -19.08738816 6.36246272 0 0 Z " fill="#C7453F" transform="translate(367,334)"/>
<path d="M0 0 C1.83076407 5.08545576 0.47170358 10.00992287 -1.4375 14.875 C-4.64145881 23.08026036 -5.30609847 31.09480929 -5.65625 39.83984375 C-6 43 -6 43 -8 45 C-13.51175586 33.97648829 -4.57228175 13.02524368 -1 2 C-0.67 1.34 -0.34 0.68 0 0 Z " fill="#3B0E0C" transform="translate(281,454)"/>
<path d="M0 0 C0.66 0 1.32 0 2 0 C2.33 0.66 2.66 1.32 3 2 C3.99 2.33 4.98 2.66 6 3 C7.359375 4.63671875 7.359375 4.63671875 8.75 6.6875 C11.29424084 10.22292152 13.96950816 12.90125495 17.34765625 15.62890625 C19 17 19 17 21.5 19.625 C23.88386877 21.88967533 26.2007009 23.282367 29.0859375 24.8203125 C32.75284756 27.08032646 35.84678847 30.08430311 39 33 C38.01 33.495 38.01 33.495 37 34 C25.62108827 26.24012085 15.73389226 17.76601732 6 8 C5.40574219 7.42894531 4.81148438 6.85789062 4.19921875 6.26953125 C2.76195416 4.88426073 1.37907116 3.443214 0 2 C0 1.34 0 0.68 0 0 Z " fill="#390A07" transform="translate(310,619)"/>
<path d="M0 0 C0.33 0 0.66 0 1 0 C1.19335938 0.89203125 1.38671875 1.7840625 1.5859375 2.703125 C1.84632813 3.87359375 2.10671875 5.0440625 2.375 6.25 C2.63023437 7.41015625 2.88546875 8.5703125 3.1484375 9.765625 C3.86688598 12.49441098 4.72339475 14.52463129 6 17 C6.56954767 19.28214587 7.00105442 21.56808275 7.4375 23.87890625 C7.95116341 26.27653722 7.95116341 26.27653722 10 29 C10.103125 29.969375 10.20625 30.93875 10.3125 31.9375 C10.84020715 36.76964195 13.02927547 40.95322947 15.0390625 45.328125 C16 48 16 48 15 51 C10.60546875 40.74609375 10.60546875 40.74609375 9.80200195 38.86328125 C9.02490253 37.05785573 8.22761061 35.26116319 7.4296875 33.46484375 C3.1674566 23.13533881 -0.47981761 11.27571383 0 0 Z " fill="#CD463F" transform="translate(249,545)"/>
<path d="M0 0 C2.65565915 2.36101597 4.03167321 4.7435422 5.55859375 7.9375 C6.02716797 8.91589844 6.49574219 9.89429688 6.97851562 10.90234375 C7.45998047 11.92457031 7.94144531 12.94679688 8.4375 14 C8.91509766 14.99128906 9.39269531 15.98257812 9.88476562 17.00390625 C14.39338436 26.49117805 18.30759677 35.44085072 19 46 C16.1856991 42.75212334 15.30205594 39.90130786 14.3125 35.75 C12.56612135 29.24015274 10.03590117 23.594552 6.81762695 17.68261719 C4.41151204 13.18470751 3.07409792 8.99400165 2 4 C1.34 4 0.68 4 0 4 C0 2.68 0 1.36 0 0 Z " fill="#CA453E" transform="translate(581,415)"/>
<path d="M0 0 C-5.03409445 2.51704722 -9.24810406 3.42790256 -14.86328125 3.7890625 C-17.05080358 3.87657712 -17.05080358 3.87657712 -19 5 C-21.62894786 5.01660585 -24.2261372 4.97288524 -26.8515625 4.87890625 C-27.62559418 4.85529526 -28.39962585 4.83168427 -29.19711304 4.80735779 C-31.6732603 4.73068562 -34.14909759 4.64667684 -36.625 4.5625 C-38.30206808 4.50928285 -39.97915137 4.45654243 -41.65625 4.40429688 C-45.77103023 4.27506572 -49.88554725 4.13925354 -54 4 C-54 3.67 -54 3.34 -54 3 C-53.16041748 2.98541748 -52.32083496 2.97083496 -51.45581055 2.95581055 C-30.38969364 2.66396106 -30.38969364 2.66396106 -9.53588867 -0.0715332 C-3.31273654 -1.28400641 -3.31273654 -1.28400641 0 0 Z " fill="#541311" transform="translate(469,698)"/>
<path d="M0 0 C0.495 0.99 0.495 0.99 1 2 C-1.98029327 6.01511732 -4.98310381 10.0123867 -8 14 C-8.64582031 14.85851562 -9.29164063 15.71703125 -9.95703125 16.6015625 C-16.6433375 25.24449311 -24.33778407 33.31726669 -33 40 C-33.66 39.67 -34.32 39.34 -35 39 C-34.05640625 38.15179687 -33.1128125 37.30359375 -32.140625 36.4296875 C-19.94831636 25.34185295 -9.39900152 13.54561984 0 0 Z " fill="#400806" transform="translate(575,620)"/>
<path d="M0 0 C-6.02977369 4.01984912 -12.92445235 4.25729264 -20 4 C-20 4.66 -20 5.32 -20 6 C-22.74837849 6.53107314 -25.49812375 7.05015881 -28.25 7.5625 C-29.02730469 7.71396484 -29.80460937 7.86542969 -30.60546875 8.02148438 C-31.73662109 8.2293457 -31.73662109 8.2293457 -32.890625 8.44140625 C-33.58188477 8.57232666 -34.27314453 8.70324707 -34.98535156 8.83813477 C-37.21287942 9.01710362 -38.87506962 8.65206197 -41 8 C-27.58319604 3.79894629 -14.18572182 -0.29782178 0 0 Z " fill="#C4423B" transform="translate(410,325)"/>
<path d="M0 0 C0.66 0 1.32 0 2 0 C2.67119549 1.4562545 3.33681807 2.91507867 4 4.375 C4.556875 5.59316406 4.556875 5.59316406 5.125 6.8359375 C6 9 6 9 6 11 C6.66 11 7.32 11 8 11 C9.5078125 12.86328125 9.5078125 12.86328125 11.125 15.3125 C11.66382813 16.11300781 12.20265625 16.91351562 12.7578125 17.73828125 C14 20 14 20 14 23 C14.66 23 15.32 23 16 23 C16 24.32 16 25.64 16 27 C16.66 27 17.32 27 18 27 C19.38938077 28.96147874 20.7260411 30.96166576 22 33 C21.67 33.66 21.34 34.32 21 35 C15.51152061 28.88246853 11.23769595 22.33989322 7.125 15.25 C6.64893311 14.43426514 6.17286621 13.61853027 5.68237305 12.77807617 C3.30160605 8.60501281 1.30701602 4.65718353 0 0 Z " fill="#CE4841" transform="translate(265,596)"/>
<path d="M0 0 C1.48668933 3.88243712 0.45832838 6.52209984 -0.8125 10.375 C-1.16957031 11.47585938 -1.52664063 12.57671875 -1.89453125 13.7109375 C-2.25933594 14.79632812 -2.62414062 15.88171875 -3 17 C-3.37511719 18.12664063 -3.75023437 19.25328125 -4.13671875 20.4140625 C-4.42160156 21.26742187 -4.70648437 22.12078125 -5 23 C-5.66 23 -6.32 23 -7 23 C-7.18175781 23.66386719 -7.36351562 24.32773437 -7.55078125 25.01171875 C-10.21352852 34.36547198 -10.21352852 34.36547198 -13 38 C-13.66 38 -14.32 38 -15 38 C-13.44558778 32.96211015 -11.37800927 28.2812471 -9.1875 23.5 C-5.69954486 15.78869662 -2.68403293 8.02629077 0 0 Z " fill="#3D0B08" transform="translate(600,567)"/>
<path d="M0 0 C0.66 0.33 1.32 0.66 2 1 C0.02 2.98 -1.96 4.96 -4 7 C-4.66 6.67 -5.32 6.34 -6 6 C-4.02 4.02 -2.04 2.04 0 0 Z M-7 7 C-7 10 -7 10 -9.265625 12.55859375 C-10.25292513 13.52593498 -11.2480879 14.4853011 -12.25 15.4375 C-12.74113281 15.91509766 -13.23226563 16.39269531 -13.73828125 16.88476562 C-15.1543376 18.2611724 -16.57705622 19.63071472 -18 21 C-18.73734375 21.77472656 -19.4746875 22.54945313 -20.234375 23.34765625 C-22 25 -22 25 -24 25 C-20.74477467 17.51990775 -14.04818129 10.97589714 -7 7 Z " fill="#2F0F0D" transform="translate(329,387)"/>
<path d="M0 0 C2.07693162 2.07693162 2.55263479 3.14710014 3.48046875 5.859375 C3.75439453 6.63933838 4.02832031 7.41930176 4.31054688 8.22290039 C4.59994141 9.05684326 4.88933594 9.89078613 5.1875 10.75 C7.87066311 18.31614651 10.99257133 25.35481385 14.8125 32.41015625 C15.204375 33.26480469 15.59625 34.11945312 16 35 C15.67 35.66 15.34 36.32 15 37 C11.39756942 32.19675923 8.50240021 27.45454054 6 22 C5.38125 20.6696875 5.38125 20.6696875 4.75 19.3125 C3.9210722 16.75663929 3.8474135 14.67026367 4 12 C3.34 12 2.68 12 2 12 C0.86235649 7.73383684 0 4.43513689 0 0 Z " fill="#C9473F" transform="translate(277,560)"/>
<path d="M0 0 C0.99 0 1.98 0 3 0 C7 6.75 7 6.75 7 9 C7.66 9 8.32 9 9 9 C11.80234034 13.07976044 13.87347691 17.63165735 16.0625 22.0625 C16.41376953 22.76955078 16.76503906 23.47660156 17.12695312 24.20507812 C17.79785531 25.55576021 18.46552798 26.90805304 19.12939453 28.26220703 C19.81558592 29.63189585 20.55314678 30.97584998 21.30859375 32.30859375 C22 34 22 34 21 37 C20.68361572 36.37134033 20.36723145 35.74268066 20.04125977 35.0949707 C14.43799306 24.01511632 8.92139335 13.14855905 1.546875 3.1328125 C0 1 0 1 0 0 Z " fill="#C7463F" transform="translate(548,410)"/>
<path d="M0 0 C3.88687952 1.37183983 5.26931528 3.11921411 7.75390625 6.30078125 C9.2702083 8.31260718 9.2702083 8.31260718 11.6875 10.5625 C14.88079435 13.83562671 17.51448655 17.42319787 20.1875 21.125 C19.8575 21.785 19.5275 22.445 19.1875 23.125 C18.64391846 22.49053955 18.64391846 22.49053955 18.08935547 21.84326172 C16.41624492 19.89334001 14.73940068 17.94666297 13.0625 16 C12.49273438 15.33484375 11.92296875 14.6696875 11.3359375 13.984375 C7.77495505 9.85687261 4.24501158 5.77220142 0.1875 2.125 C-3.11434928 2.08906842 -3.11434928 2.08906842 -5.8125 3.125 C-3.98050472 0.58056211 -3.18949957 0.14175554 0 0 Z " fill="#350907" transform="translate(548.8125,371.875)"/>
<path d="M0 0 C0 0.33 0 0.66 0 1 C-1.28390625 1.03738281 -2.5678125 1.07476562 -3.890625 1.11328125 C-14.26680888 1.4790227 -24.36669627 2.27105377 -34.60058594 4.0715332 C-35.38336914 4.20519287 -36.16615234 4.33885254 -36.97265625 4.4765625 C-37.65593994 4.60111816 -38.33922363 4.72567383 -39.04321289 4.85400391 C-41.23797692 5.01775548 -42.90554558 4.63819293 -45 4 C-42.29120665 2.64560332 -39.99066732 2.93498549 -37 3 C-37 2.34 -37 1.68 -37 1 C-24.65864238 -0.07650471 -12.38100347 -0.11028714 0 0 Z " fill="#D64B44" transform="translate(437,348)"/>
<path d="M0 0 C2.125 0.375 2.125 0.375 4 1 C-14.29979879 18 -14.29979879 18 -18 18 C-18 17.01 -18 16.02 -18 15 C-17.113125 14.608125 -16.22625 14.21625 -15.3125 13.8125 C-11.84713899 11.91635907 -9.66892505 9.88532438 -7 7 C-5.3125 5.1875 -5.3125 5.1875 -4 4 C-3.34 4 -2.68 4 -2 4 C-2 3.34 -2 2.68 -2 2 C-1.34 1.34 -0.68 0.68 0 0 Z " fill="#D04840" transform="translate(547,649)"/>
<path d="M0 0 C0.66 0 1.32 0 2 0 C2 0.66 2 1.32 2 2 C2.66 2 3.32 2 4 2 C5.70993434 3.6222454 7.37347684 5.29413425 9 7 C9.47824219 7.47179687 9.95648438 7.94359375 10.44921875 8.4296875 C15.27723523 13.31851023 19.63006194 18.70310539 24 24 C20.47801572 22.49401013 18.19014591 20.44784174 15.48828125 17.75390625 C14.64845703 16.91666016 13.80863281 16.07941406 12.94335938 15.21679688 C12.07517578 14.34087891 11.20699219 13.46496094 10.3125 12.5625 C9.43271484 11.69044922 8.55292969 10.81839844 7.64648438 9.91992188 C6.81052734 9.08138672 5.97457031 8.24285156 5.11328125 7.37890625 C4.34798096 6.6113501 3.58268066 5.84379395 2.79418945 5.05297852 C1 3 1 3 0 0 Z " fill="#D34B45" transform="translate(290,635)"/>
<path d="M0 0 C0.33 0.99 0.66 1.98 1 3 C-2.33333333 6.33333333 -5.66666667 9.66666667 -9 13 C-9.8559375 13.8765625 -10.711875 14.753125 -11.59375 15.65625 C-14.53594897 18.52202822 -17.61902016 20.67971972 -21 23 C-21.66 22.67 -22.32 22.34 -23 22 C-22.01 21.16597656 -21.02 20.33195313 -20 19.47265625 C-12.82647047 13.37565538 -5.94370177 7.348922 0 0 Z " fill="#CF4840" transform="translate(541,622)"/>
<path d="M0 0 C0.703125 1.76171875 0.703125 1.76171875 1 4 C-0.328125 5.89453125 -0.328125 5.89453125 -2.25 7.8125 C-5.60952761 11.38660821 -7.36980828 14.39710573 -9 19 C-9.66 19 -10.32 19 -11 19 C-11.28875 19.969375 -11.5775 20.93875 -11.875 21.9375 C-13 25 -13 25 -15 26 C-12.06653583 16.30806446 -6.29934436 7.8453373 0 0 Z " fill="#3D0B08" transform="translate(304,412)"/>
<path d="M0 0 C0 0.66 0 1.32 0 2 C-11.55 1.67 -23.1 1.34 -35 1 C-35 0.67 -35 0.34 -35 0 C-31.68767894 -0.17035053 -28.37512086 -0.33559092 -25.0625 -0.5 C-24.13630859 -0.54769531 -23.21011719 -0.59539062 -22.25585938 -0.64453125 C-5.65713949 -1.45990696 -5.65713949 -1.45990696 0 0 Z " fill="#B13731" transform="translate(451,349)"/>
<path d="M0 0 C6.79328782 6.79328782 6.03962341 19.27706666 6.0625 28.1875 C6.0467943 29.79172506 6.02792366 31.39594109 6 33 C5.67 33 5.34 33 5 33 C4.35353791 28.81259682 3.70794265 24.62506043 3.0625 20.4375 C2.88009766 19.25607422 2.69769531 18.07464844 2.50976562 16.85742188 C1.64464937 11.2420309 0.78499746 5.6271923 0 0 Z " fill="#C1413B" transform="translate(576,464)"/>
<path d="M0 0 C2.64 0 5.28 0 8 0 C8 0.66 8 1.32 8 2 C9.65 2 11.3 2 13 2 C13 2.66 13 3.32 13 4 C14.051875 3.938125 14.051875 3.938125 15.125 3.875 C18.38371628 4.01668332 20.9559947 4.86734686 24 6 C24 6.66 24 7.32 24 8 C24.66 8 25.32 8 26 8 C25.67 8.99 25.34 9.98 25 11 C25 10.34 25 9.68 25 9 C24.27530518 8.86859619 23.55061035 8.73719238 22.80395508 8.60180664 C20.14427473 8.03096536 17.69797741 7.27992747 15.13671875 6.37109375 C14.25048828 6.05849609 13.36425781 5.74589844 12.45117188 5.42382812 C11.0831543 4.9355957 11.0831543 4.9355957 9.6875 4.4375 C8.75615234 4.10814453 7.82480469 3.77878906 6.86523438 3.43945312 C4.57573277 2.62932179 2.28738542 1.81608317 0 1 C0 0.67 0 0.34 0 0 Z " fill="#43110D" transform="translate(472,329)"/>
<path d="M0 0 C0.66 0.33 1.32 0.66 2 1 C1.27683594 1.68835938 1.27683594 1.68835938 0.5390625 2.390625 C-0.09257812 3.00421875 -0.72421875 3.6178125 -1.375 4.25 C-2.00148438 4.85328125 -2.62796875 5.4565625 -3.2734375 6.078125 C-5.04837449 7.86634282 -5.04837449 7.86634282 -5.875 9.875 C-7.54539686 13.03019407 -10.08484348 15.29365575 -12.625 17.75 C-13.140625 18.25660156 -13.65625 18.76320313 -14.1875 19.28515625 C-15.45383339 20.52803902 -16.7263144 21.76465276 -18 23 C-18 20 -18 20 -16.35546875 18.1328125 C-15.64003906 17.47023438 -14.92460937 16.80765625 -14.1875 16.125 C-11.16899119 13.22786479 -9.12429921 10.60207257 -7 7 C-4.75067082 4.5776455 -2.39538031 2.27725196 0 0 Z " fill="#E0443C" transform="translate(312,366)"/>
<path d="M0 0 C1.32 0.33 2.64 0.66 4 1 C-7.55813953 9.27906977 -7.55813953 9.27906977 -13 12 C-13.66 11.67 -14.32 11.34 -15 11 C-14.01 10.67 -13.02 10.34 -12 10 C-12 9.34 -12 8.68 -12 8 C-10.35546875 6.7109375 -10.35546875 6.7109375 -8.1875 5.375 C-7.47980469 4.92898438 -6.77210938 4.48296875 -6.04296875 4.0234375 C-4 3 -4 3 -1 3 C-0.67 2.01 -0.34 1.02 0 0 Z " fill="#D54B42" transform="translate(525,667)"/>
<path d="M0 0 C6.03331362 4.98404168 11.5184171 10.41915303 17 16 C16.01 16.33 15.02 16.66 14 17 C14 16.34 14 15.68 14 15 C13.13761719 14.62294922 13.13761719 14.62294922 12.2578125 14.23828125 C9.70517112 12.83830319 7.93766878 11.23840451 5.875 9.1875 C5.19179688 8.52105469 4.50859375 7.85460937 3.8046875 7.16796875 C1.89065763 4.86864715 0.95430817 2.81865249 0 0 Z " fill="#470E0C" transform="translate(291,638)"/>
<path d="M0 0 C-1.30080916 2.60161833 -2.22264899 2.65118797 -4.9375 3.5625 C-9.90869642 5.14497089 -14.8101867 5.68579418 -20 6 C-16.7410945 3.82739633 -13.67850305 2.64978913 -10 1.3125 C-8.7625 0.85488281 -7.525 0.39726563 -6.25 -0.07421875 C-3 -1 -3 -1 0 0 Z " fill="#430E0B" transform="translate(495,689)"/>
<path d="M0 0 C6.71539173 1.29975324 12.72019113 3.29928888 19 6 C19 6.66 19 7.32 19 8 C17.02 8.99 15.04 9.98 13 11 C13 10.34 13 9.68 13 9 C13.66 9 14.32 9 15 9 C15 8.01 15 7.02 15 6 C13.9171875 6.0928125 13.9171875 6.0928125 12.8125 6.1875 C9.41645157 5.96109677 7.82908908 4.8389079 5 3 C3.34630643 2.30177383 1.68272986 1.62501395 0 1 C0 0.67 0 0.34 0 0 Z " fill="#CD4F45" transform="translate(478,332)"/>
<path d="M0 0 C1.32 0.33 2.64 0.66 4 1 C1.63052694 2.32340798 -0.74475856 3.63371607 -3.125 4.9375 C-4.12273437 5.49727539 -4.12273437 5.49727539 -5.140625 6.06835938 C-9.10418806 8.22500398 -12.43272113 9.55180908 -17 10 C-16.34 9.67 -15.68 9.34 -15 9 C-15 8.34 -15 7.68 -15 7 C-13.25093469 6.35163958 -11.50070781 5.70641216 -9.75 5.0625 C-8.28820312 4.52302734 -8.28820312 4.52302734 -6.796875 3.97265625 C-4.53542839 3.18620345 -2.33203448 2.52748399 0 2 C0 1.34 0 0.68 0 0 Z " fill="#C3433E" transform="translate(506,679)"/>
<path d="M0 0 C0.66 0.33 1.32 0.66 2 1 C-1.63 7.93 -5.26 14.86 -9 22 C-10 19 -10 19 -8.8203125 16.22265625 C-8.26085937 15.17980469 -7.70140625 14.13695312 -7.125 13.0625 C-5.32505074 9.6844557 -3.86463457 6.71876811 -3 3 C-1.4375 1.25 -1.4375 1.25 0 0 Z " fill="#440C08" transform="translate(271,413)"/>
<path d="M0 0 C0.33 0 0.66 0 1 0 C1.63175608 5.18039987 0.25817319 7.66878358 -2.7109375 11.6796875 C-3.13632812 12.11539063 -3.56171875 12.55109375 -4 13 C-4.66 13 -5.32 13 -6 13 C-6 13.66 -6 14.32 -6 15 C-6.66 15 -7.32 15 -8 15 C-6.62859834 11.32305352 -4.96304199 8.04681411 -2.9375 4.6875 C-2.41027344 3.80449219 -1.88304687 2.92148437 -1.33984375 2.01171875 C-0.89769531 1.34785156 -0.45554687 0.68398438 0 0 Z " fill="#350B08" transform="translate(584,605)"/>
<path d="M0 0 C0.66 0.33 1.32 0.66 2 1 C-2.29 5.29 -6.58 9.58 -11 14 C-11.33 12.68 -11.66 11.36 -12 10 C-11.01 10 -10.02 10 -9 10 C-9 9.01 -9 8.02 -9 7 C-8.01 7 -7.02 7 -6 7 C-6 6.01 -6 5.02 -6 4 C-3.5625 2.375 -3.5625 2.375 -1 1 C-0.67 0.67 -0.34 0.34 0 0 Z " fill="#C8433E" transform="translate(327,385)"/>
<path d="M0 0 C0.33 0 0.66 0 1 0 C1.30268153 5.14558605 0.8378619 7.74320715 -2 12 C-2.71143088 13.98451771 -3.38991336 15.98202112 -4 18 C-4.66 18 -5.32 18 -6 18 C-4.23536928 11.89262558 -2.30442525 5.92566493 0 0 Z " fill="#DD4841" transform="translate(576,559)"/>
<path d="M0 0 C1.42600325 4.27800976 -0.54362936 6.86765922 -2.4375 10.6875 C-2.77587891 11.38939453 -3.11425781 12.09128906 -3.46289062 12.81445312 C-4.29981348 14.54723706 -5.14877393 16.27419752 -6 18 C-6.33 18 -6.66 18 -7 18 C-6.67 15.69 -6.34 13.38 -6 11 C-5.34 11 -4.68 11 -4 11 C-3.34 8.03 -2.68 5.06 -2 2 C-1.34 2 -0.68 2 0 2 C0 1.34 0 0.68 0 0 Z " fill="#330706" transform="translate(570,572)"/>
<path d="M0 0 C4.42679007 1.47559669 4.91432696 3.90057368 7 8 C7 8.66 7 9.32 7 10 C7.66 10 8.32 10 9 10 C9.66 12.31 10.32 14.62 11 17 C8.05849939 14.33687484 6.0071969 11.22754654 3.8125 7.9375 C3.09707031 6.87402344 2.38164063 5.81054688 1.64453125 4.71484375 C0 2 0 2 0 0 Z " fill="#420B09" transform="translate(572,399)"/>
<path d="M0 0 C0.66 0.33 1.32 0.66 2 1 C0.37660195 2.70884005 -1.29319053 4.37446717 -3 6 C-3.66 6 -4.32 6 -5 6 C-5.33 6.99 -5.66 7.98 -6 9 C-6.99 9.66 -7.98 10.32 -9 11 C-9.99 10.67 -10.98 10.34 -12 10 C-8.04 6.7 -4.08 3.4 0 0 Z " fill="#360907" transform="translate(486,346)"/>
<path d="M0 0 C1.32 0 2.64 0 4 0 C4 0.66 4 1.32 4 2 C4.763125 2.268125 5.52625 2.53625 6.3125 2.8125 C8.92313504 3.96603641 10.07385089 4.98629865 12 7 C12.99 7.33 13.98 7.66 15 8 C15 8.66 15 9.32 15 10 C11.13518578 8.61423779 8.03192572 6.81080359 4.6875 4.4375 C3.80449219 3.81746094 2.92148437 3.19742188 2.01171875 2.55859375 C1.34785156 2.04425781 0.68398438 1.52992188 0 1 C0 0.67 0 0.34 0 0 Z " fill="#D14A43" transform="translate(324,667)"/>
<path d="M0 0 C0.66 0.33 1.32 0.66 2 1 C1.071875 1.7425 0.14375 2.485 -0.8125 3.25 C-2.76549229 4.85327041 -4.03653915 6.05560305 -5.4375 8.1875 C-7.7952823 10.92252747 -10.56929049 11.22323558 -14 12 C-9.73412126 7.45890328 -4.96387672 3.75264754 0 0 Z " fill="#3B0806" transform="translate(538,660)"/>
<path d="M0 0 C1.65 0 3.3 0 5 0 C3.33333333 1.66666667 1.66666667 3.33333333 0 5 C-0.474375 5.61875 -0.94875 6.2375 -1.4375 6.875 C-3 8 -3 8 -6.1875 7.6875 C-7.115625 7.460625 -8.04375 7.23375 -9 7 C-9 6.67 -9 6.34 -9 6 C-7.35 6 -5.7 6 -4 6 C-4 5.34 -4 4.68 -4 4 C-3.01 3.67 -2.02 3.34 -1 3 C-0.67 2.01 -0.34 1.02 0 0 Z " fill="#CC433E" transform="translate(477,349)"/>
<path d="M0 0 C1.31600093 3.94800278 0.07613159 6.39940306 -1.3125 10.125 C-1.53873047 10.77082031 -1.76496094 11.41664063 -1.99804688 12.08203125 C-3.73948991 16.86974496 -3.73948991 16.86974496 -6 18 C-5.55232781 12.71746819 -5.0107839 9.45596017 -2 5 C-1.30177383 3.34630643 -0.62501395 1.68272986 0 0 Z " fill="#D24A41" transform="translate(282,448)"/>
<path d="M0 0 C0.66 0.33 1.32 0.66 2 1 C2 1.99 2 2.98 2 4 C3.69139999 5.40876396 5.49518089 6.4728077 7.37109375 7.62109375 C9.3543268 9.29994571 9.61937434 10.47500443 10 13 C9.55269531 12.61328125 9.10539063 12.2265625 8.64453125 11.828125 C8.03996094 11.30734375 7.43539062 10.7865625 6.8125 10.25 C6.17828125 9.7034375 5.5440625 9.156875 4.890625 8.59375 C3.31779514 7.26789342 1.69559234 6.00087924 0.0625 4.75 C-0.618125 4.1725 -1.29875 3.595 -2 3 C-2 2.34 -2 1.68 -2 1 C-1.34 0.67 -0.68 0.34 0 0 Z " fill="#C74944" transform="translate(527,384)"/>
<path d="M0 0 C1.24031557 3.72094671 0.57190264 4.99455723 -0.75 8.625 C-1.26820313 10.09839844 -1.26820313 10.09839844 -1.796875 11.6015625 C-3 14 -3 14 -6 15 C-4.36041242 9.76727367 -2.61047965 4.84803364 0 0 Z " fill="#3D0C09" transform="translate(288,438)"/>
<path d="M0 0 C0.99 0.33 1.98 0.66 3 1 C0.03 3.64 -2.94 6.28 -6 9 C-6.33 7.68 -6.66 6.36 -7 5 C-6.01 5 -5.02 5 -4 5 C-4 4.34 -4 3.68 -4 3 C-3.34 3 -2.68 3 -2 3 C-2 2.34 -2 1.68 -2 1 C-1.34 0.67 -0.68 0.34 0 0 Z " fill="#430E0B" transform="translate(529,632)"/>
<path d="M0 0 C0.96733064 3.07425629 1.06567122 3.82487676 -0.125 7 C-2.08258527 10.13213644 -3.99745734 11.89010516 -7 14 C-5.23570801 9.02790438 -2.6060834 4.56561939 0 0 Z " fill="#CC463E" transform="translate(562,592)"/>
<path d="M0 0 C1.21236328 0.01353516 1.21236328 0.01353516 2.44921875 0.02734375 C3.37154297 0.04474609 3.37154297 0.04474609 4.3125 0.0625 C1.2655371 1.75683918 -1.51571466 2.55717112 -4.9375 3.1875 C-6.27554687 3.43886719 -6.27554687 3.43886719 -7.640625 3.6953125 C-8.31609375 3.81648438 -8.9915625 3.93765625 -9.6875 4.0625 C-6.9209694 -0.0872959 -4.6801992 -0.06782897 0 0 Z " fill="#D6463F" transform="translate(387.6875,352.9375)"/>
<path d="M0 0 C2.50719458 2.32649587 4.32183601 4.82681521 6.1875 7.6875 C6.71730469 8.49574219 7.24710937 9.30398438 7.79296875 10.13671875 C8.39044922 11.05904297 8.39044922 11.05904297 9 12 C8.67 12.66 8.34 13.32 8 14 C7.38125 13.195625 6.7625 12.39125 6.125 11.5625 C4.25835959 8.96125481 4.25835959 8.96125481 2 8 C1.3671875 6.15234375 1.3671875 6.15234375 0.875 3.9375 C0.70742188 3.20402344 0.53984375 2.47054687 0.3671875 1.71484375 C0.24601562 1.14894531 0.12484375 0.58304688 0 0 Z " fill="#C54840" transform="translate(293,597)"/>
<path d="M0 0 C0.33 0.66 0.66 1.32 1 2 C-1.062239 6.43522633 -3.73509285 10.47264762 -8 13 C-6.40956621 7.91061189 -3.2553049 4.12543357 0 0 Z " fill="#C7433D" transform="translate(287,392)"/>
<path d="M0 0 C-2 2 -2 2 -4 2.4375 C-6.38640738 2.87458708 -6.38640738 2.87458708 -8 6 C-8.99 6 -9.98 6 -11 6 C-9.89210592 2.67631776 -9.51563783 2.38436907 -6.625 0.75 C-6.01914062 0.39421875 -5.41328125 0.0384375 -4.7890625 -0.328125 C-3 -1 -3 -1 0 0 Z " fill="#D84842" transform="translate(341,349)"/>
<path d="M0 0 C0.33 1.32 0.66 2.64 1 4 C0.01 4.33 -0.98 4.66 -2 5 C-2.69658363 6.65438613 -3.36096883 8.32254318 -4 10 C-5.625 11.8125 -5.625 11.8125 -7 13 C-5.58832253 7.73829306 -3.25149768 4.27828642 0 0 Z " fill="#CF4841" transform="translate(278,405)"/>
<path d="M0 0 C1.60568666 0.28317926 3.20952047 0.57687791 4.8125 0.875 C6.15248047 1.11863281 6.15248047 1.11863281 7.51953125 1.3671875 C10 2 10 2 13 4 C5.73846154 4.49230769 5.73846154 4.49230769 2 2 C1.34 1.34 0.68 0.68 0 0 Z " fill="#DB4C44" transform="translate(380,669)"/>
<path d="M0 0 C-0.99 0.33 -1.98 0.66 -3 1 C-3 1.66 -3 2.32 -3 3 C-7.455 3.495 -7.455 3.495 -12 4 C-11 2 -11 2 -8.25 0.875 C-5.29813104 0.08026605 -3.02780163 -0.17810598 0 0 Z " fill="#310F0E" transform="translate(378,329)"/>
<path d="M0 0 C0.33 0 0.66 0 1 0 C3.28571429 8.42857143 3.28571429 8.42857143 3 13 C0.75393573 11.22555028 0.04918998 10.41647515 -0.29296875 7.51953125 C-0.25816406 6.62621094 -0.22335938 5.73289062 -0.1875 4.8125 C-0.16042969 3.91144531 -0.13335937 3.01039063 -0.10546875 2.08203125 C-0.07066406 1.39496094 -0.03585938 0.70789063 0 0 Z " fill="#290D0D" transform="translate(245,535)"/>
<path d="M0 0 C-6.625 3.125 -6.625 3.125 -10 2 C-10 1.34 -10 0.68 -10 0 C-6.33694766 -0.74926071 -3.57644848 -1.2380014 0 0 Z " fill="#310A09" transform="translate(469,698)"/>
<path d="M0 0 C0.33 0 0.66 0 1 0 C1 1.98 1 3.96 1 6 C1.66 6 2.32 6 3 6 C2.67 7.98 2.34 9.96 2 12 C-0.13586678 8.79619983 -0.23132175 7.98060033 -0.125 4.3125 C-0.10695313 3.50425781 -0.08890625 2.69601562 -0.0703125 1.86328125 C-0.04710937 1.24839844 -0.02390625 0.63351562 0 0 Z " fill="#2E0F0D" transform="translate(579,491)"/>
<path d="M0 0 C-3.00617269 3.00617269 -5.82381598 2.59585316 -10 3 C-7.29536552 -0.8183075 -4.37912428 -0.24787496 0 0 Z " fill="#DC4A42" transform="translate(489,689)"/>
<path d="M0 0 C-1.97420135 2.52259061 -2.96745642 2.9929808 -6.1875 3.6875 C-7.5796875 3.8421875 -7.5796875 3.8421875 -9 4 C-8.34 3.67 -7.68 3.34 -7 3 C-7 2.34 -7 1.68 -7 1 C-4.53721199 -0.231394 -2.7204945 -0.07159196 0 0 Z " fill="#CF4840" transform="translate(498,685)"/>
<path d="M0 0 C0.33 0 0.66 0 1 0 C1.36923077 7.50769231 1.36923077 7.50769231 -0.5 10 C-0.995 10.33 -1.49 10.66 -2 11 C-1.125 3.375 -1.125 3.375 0 0 Z " fill="#BF413A" transform="translate(252,461)"/>
<path d="M0 0 C-2.31 1.65 -4.62 3.3 -7 5 C-7.66 4.67 -8.32 4.34 -9 4 C-6.56225426 0.2214941 -6.56225426 0.2214941 -3.9375 -0.8125 C-2 -1 -2 -1 0 0 Z " fill="#2B0E0D" transform="translate(350,374)"/>
<path d="M0 0 C0.33 0.99 0.66 1.98 1 3 C-1.31 4.98 -3.62 6.96 -6 9 C-4.25618453 5.51236907 -2.47193291 2.96631949 0 0 Z " fill="#21100F" transform="translate(571,628)"/>
<path d="M0 0 C1.10191901 4.40767604 0.58706842 5.8922935 -1 10 C-1.66 10 -2.32 10 -3 10 C-2.01 6.7 -1.02 3.4 0 0 Z " fill="#C5433D" transform="translate(573,567)"/>
</svg>
